<svg xmlns="http://www.w3.org/2000/svg" width="30.709" height="28.658" viewBox="0 0 30.709 28.658" fill="none">
  <path d="M 6.022 11.538 C 8.64 12.991 10.292 14.557 13.744 14.264 C 14.447 14.198 14.186 14.231 14.856 14.084 C 24.067 12.142 27.323 6.446 30.709 0 C 30.398 6.104 30.104 14.051 24.95 16.32 C 19.928 18.523 16.705 17.838 14.153 19.486 C 12.582 20.498 16.672 23.223 16.672 23.223 C 15.658 23.729 12.664 23.223 10.488 24.317 C 6.676 26.226 5.515 28.658 5.515 28.658 C 7.282 22.783 5.449 18.376 5.449 18.376 C 5.089 17.315 4.288 15.373 2.815 14.655 C 2.439 14.476 2.096 14.313 1.523 14.574 C 0.918 14.867 0.934 15.814 0.934 15.814 C 0.934 15.814 -0.538 15.031 0.214 13.382 C 1.196 11.244 2.472 9.563 6.022 11.538 Z" fill="currentColor" fill-rule="nonzero"></path>
</svg>